/* XPM */
static char *c7dd0fa5be1e42ac91a0e5549cb525ddvhmz80rh3GSKNOWi[] = {
/* columns rows colors chars-per-pixel */
"48 48 3 1 ",
"  c black",
". c #FAA3D6",
"X c white",
/* pixels */
"              XXXXXXXXXXXXXXXXXX                ",
"              XXXXXXXXXXXXXXXXXX                ",
"           XXX                  XXX             ",
"           XXX                  XXX             ",
"           XXX                  XXX             ",
"        XXX   XXX                  XXX          ",
"        XXX   XXX                  XXX          ",
"        XXX   XXX                  XXX          ",
"      XX         ............         XX        ",
"      XX         ............         XX        ",
"      XX         ............         XX        ",
"      XX      ..................      XX        ",
"      XX      ..................      XX        ",
"      XX      ..................      XX        ",
"      XX      ...   ......   ...      XX        ",
"      XX      ...   ......   ...      XX        ",
"      XX      ...   ......   ...      XX        ",
"      XX      ..................      XX        ",
"      XX      ..................      XX        ",
"      XX      ..................      XX        ",
"      XX      ......      ......      XX        ",
"      XX      ......      ......      XX        ",
"      XX      ......      ......      XX        ",
"        XXX   ..................   XXX          ",
"        XXX     ..............     XXX          ",
"        XXX     ..............     XXX          ",
"                                                ",
"                                                ",
"                                                ",
"        XXXXXXXXXXXXXXXXXXXXXXXXXXXXXX          ",
"        XXXXXXXXXXXXXXXXXXXXXXXXXXXXXX          ",
"      XXXXXXXXXXXXXXXXX   XXXXXXXXXXXXXX        ",
"      XXXXXXXXXXXXXXXXX   XXXXXXXXXXXXXX        ",
"      XXXXXXXXXXXXXXXXX   XXXXXXXXXXXXXX        ",
"      XXXXX   XXXXXXXXXXXXXXXXXX   XXXXX        ",
"      XXXXX   XXXXXXXXXXXXXXXXXX   XXXXX        ",
"      XXXXX   XXXXXXXXXXXXXXXXXX   XXXXX        ",
"                 XXX      XXX                   ",
"                 XXX      XXX                   ",
"                 XXX      XXX                   ",
"                 XXX      XXX                   ",
"                 XXX      XXX                   ",
"                 XXX      XXX                   ",
"              XXXXXX      XXXXXX                ",
"              XXXXXX      XXXXXX                ",
"              XXXXXX      XXXXXX                ",
"                                                ",
"                                                "
};
