/* XPM */
static char *exit_3[] = {
/* columns rows colors chars-per-pixel */
"48 48 2 1 ",
"  c black",
". c #00FE00",
/* pixels */
"..............................................  ",
"..         .           .          .         ..  ",
". .         .          .         .         . .  ",
".  .        .          .         .        .  .  ",
".   .        .         .        .        .   .  ",
".    .       .         .        .       .    .  ",
".     .       .        .       .       .     .  ",
".      .      .        .       .      .      .  ",
".       .      .       .      .      .       .  ",
".        ............................        .  ",
".        ..     .      .     .     ..        .  ",
"..       . .    .      .     .    . .       ..  ",
". ..     .  .    .     .    .    .  .     .. .  ",
".   ..   .   .   .     .    .   .   .   ..   .  ",
".     .. .    .   .    .   .   .    . ..     .  ",
".       ..     .  .    .   .  .     ..       .  ",
".        ...    ..............     ..        .  ",
".        .  ..  ..............   .. .        .  ",
".        .    ................ ..   .        .  ",
".        .      ...............     .        .  ",
".        .      ..............      .        .  ",
".        .      ..............      .        .  ",
"..............................      .        .  ",
".        .      ..............................  ",
".        .      ..............      .        .  ",
".        .      ..............      .        .  ",
".        .      ..............      .        .  ",
".        .    ..................    .        .  ",
".        .  ..  ..............  ..  .        .  ",
".        ...    ..............    ...        .  ",
".       ..     .  .   .    .  .     ..       .  ",
".     .. .    .   .   .    .   .    . ..     .  ",
".   ..   .   .   .    .     .   .   .   ..   .  ",
". ..     .  .    .    .     .    .  .     .. .  ",
"..       . .    .     .      .    . .       ..  ",
".        ..     .     .      .     ..        .  ",
".        ............................        .  ",
".       .      .      .       .      .       .  ",
".      .      .       .        .      .      .  ",
".     .       .       .        .       .     .  ",
".    .       .        .         .       .    .  ",
".   .        .        .         .        .   .  ",
".  .        .         .          .        .  .  ",
". .         .         .          .         . .  ",
"..         .          .           .         ..  ",
"..............................................  ",
"                                                ",
"                                                "
};
