/* XPM */
static char *_d1e436404f140ebdce2af6d2569a4903wGY0G0NKFtuv7v9[] = {
/* columns rows colors chars-per-pixel */
"48 48 3 1 ",
"  c black",
". c #FAA3D6",
"X c white",
/* pixels */
"              XXXXXXXXXXXXXXXXXX                ",
"              XXXXXXXXXXXXXXXXXX                ",
"           XXX                  XXX             ",
"           XXX                  XXX             ",
"           XXX                  XXX             ",
"        XXX   XXX                  XXX          ",
"        XXX   XXX                  XXX          ",
"        XXX   XXX                  XXX          ",
"      XX         ............         XX        ",
"      XX         ............         XX        ",
"      XX         ............         XX        ",
"      XX      ..................      XX        ",
"      XX      ..................      XX        ",
"      XX      ..................      XX        ",
"      XX      ...   ...   ......      XX        ",
"      XX      ...   ...   ......      XX        ",
"      XX      ...   ...   ......      XX        ",
"      XX      ..................      XX        ",
"      XX      ..................      XX        ",
"      XX      ..................      XX        ",
"      XX            ............      XX        ",
"      XX            ............      XX        ",
"      XX            ............      XX        ",
"        XXX   ..................   XXX          ",
"        XXX     ..............     XXX          ",
"        XXX     ..............     XXX          ",
"                                                ",
"                                                ",
"                                                ",
"        XXXXXXXXXXXXXXXXXXXXXXXXXXXXXX          ",
"        XXXXXXXXXXXXXXXXXXXXXXXXXXXXXX          ",
"      XXXXXXXXXXXXXXXXX   XXXXXXXXXXXXXX        ",
"      XXXXXXXXXXXXXXXXX   XXXXXXXXXXXXXX        ",
"      XXXXXXXXXXXXXXXXX   XXXXXXXXXXXXXX        ",
"      XXXXX   XXXXXXXXXXXXXXXXXX   XXXXX        ",
"      XXXXX   XXXXXXXXXXXXXXXXXX   XXXXX        ",
"      XXXXX   XXXXXXXXXXXXXXXXXX   XXXXX        ",
"                 XXX      XXX                   ",
"                 XXX      XXX                   ",
"                 XXX      XXX                   ",
"                 XXX      XXX                   ",
"                 XXX      XXX                   ",
"                 XXX      XXX                   ",
"              XXXXXX   XXXXXX                   ",
"              XXXXXX   XXXXXX                   ",
"              XXXXXX   XXXXXX                   ",
"                                                ",
"                                                "
};
