/* XPM */
static char *e4d3a2b61a7b4c2dea2c74731b578656mqemHA2uyWzLhhtg[] = {
/* columns rows colors chars-per-pixel */
"48 48 3 1 ",
"  c black",
". c #FAA3D6",
"X c white",
/* pixels */
"              XXXXXXXXXXXXXXXXXX                ",
"              XXXXXXXXXXXXXXXXXX                ",
"           XXX                  XXX             ",
"           XXX                  XXX             ",
"           XXX                  XXX             ",
"        XXX   XXX                  XXX          ",
"        XXX   XXX                  XXX          ",
"        XXX   XXX                  XXX          ",
"      XX         ............         XX        ",
"      XX         ............         XX        ",
"      XX         ............         XX        ",
"      XX      ..................      XX        ",
"      XX      ..................      XX        ",
"      XX      ..................      XX        ",
"      XX      ......   ...   ...      XX        ",
"      XX      ......   ...   ...      XX        ",
"      XX      ......   ...   ...      XX        ",
"      XX      ..................      XX        ",
"      XX      ..................      XX        ",
"      XX      ..................      XX        ",
"      XX      ............            XX        ",
"      XX      ............            XX        ",
"      XX      ............            XX        ",
"        XXX   ..................   XXX          ",
"        XXX     ..............     XXX          ",
"        XXX     ..............     XXX          ",
"                                                ",
"                                                ",
"                                                ",
"        XXXXXXXXXXXXXXXXXXXXXXXXXXXXXX          ",
"        XXXXXXXXXXXXXXXXXXXXXXXXXXXXXX          ",
"      XXXXXXXXXXXXXXXXX   XXXXXXXXXXXXXX        ",
"      XXXXXXXXXXXXXXXXX   XXXXXXXXXXXXXX        ",
"      XXXXXXXXXXXXXXXXX   XXXXXXXXXXXXXX        ",
"      XXXXX   XXXXXXXXXXXXXXXXXX   XXXXX        ",
"      XXXXX   XXXXXXXXXXXXXXXXXX   XXXXX        ",
"      XXXXX   XXXXXXXXXXXXXXXXXX   XXXXX        ",
"                 XXX      XXX                   ",
"                 XXX      XXX                   ",
"                 XXX      XXX                   ",
"                 XXX      XXX                   ",
"                 XXX      XXX                   ",
"                 XXX      XXX                   ",
"                 XXXXXX   XXXXXX                ",
"                 XXXXXX   XXXXXX                ",
"                 XXXXXX   XXXXXX                ",
"                                                ",
"                                                "
};
