/* XPM */
static char *ba9997dbb3fb4244de3e8b6ac92fbeaam5eTX4ch9nPZ0UV4[] = {
/* columns rows colors chars-per-pixel */
"48 48 2 1 ",
"  c black",
". c #05E9E1",
/* pixels */
"                                                ",
"                                                ",
"                                                ",
"                                                ",
"                                                ",
"                                                ",
"                                                ",
"                                                ",
"                                                ",
"                                                ",
"                                                ",
"                                                ",
"                                                ",
"                                                ",
"                                                ",
"                                                ",
"                  ..........                    ",
"                  ..........                    ",
"                ..  ......  ..                  ",
"                ..  ......  ..                  ",
"              ......  ..  ......                ",
"              ......  ..  ......                ",
"            ..........  ..........              ",
"            ..........  ..........              ",
"          ..  ......  ..  ......  ..            ",
"          ..  ......  ..  ......  ..            ",
"          ....  ..  ......  ..  ....            ",
"          ....  ..  ......  ..  ....            ",
"          ......  ..........  ......            ",
"          ......  ..........  ......            ",
"          ......  ..........  ......            ",
"          ......  ..........  ......            ",
"          ....  ..  ......  ..  ....            ",
"          ....  ..  ......  ..  ....            ",
"          ..  ..      ..      ..  ..            ",
"          ..  ..      ..      ..  ..            ",
"            ..      ..  ..      ..              ",
"            ..      ..  ..      ..              ",
"              ..  ..      ..  ..                ",
"              ..  ..      ..  ..                ",
"                ..          ..                  ",
"                ..          ..                  ",
"                  ..........                    ",
"                  ..........                    ",
"                                                ",
"                                                ",
"                                                ",
"                                                "
};
