/* XPM */
static char *_9ecad1437be4234f9ab08d0e71078eb5PKw7gDvEfglva89[] = {
/* columns rows colors chars-per-pixel */
"48 48 3 1 ",
"  c black",
". c #FAA3D6",
"X c white",
/* pixels */
"              XXXXXXXXXXXXXXXXXX                ",
"              XXXXXXXXXXXXXXXXXX                ",
"           XXX                  XXX             ",
"           XXX                  XXX             ",
"           XXX                  XXX             ",
"        XXX   XXX                  XXX          ",
"        XXX   XXX                  XXX          ",
"        XXX   XXX                  XXX          ",
"      XX         ............         XX        ",
"      XX         ............         XX        ",
"      XX         ............         XX        ",
"      XX      ..................      XX        ",
"      XX      ..................      XX        ",
"      XX      ..................      XX        ",
"      XX      ..................      XX        ",
"      XX      ..................      XX        ",
"      XX      ..................      XX        ",
"      XX      ..................      XX        ",
"      XX      ..................      XX        ",
"      XX      ..................      XX        ",
"      XX      ..................      XX        ",
"      XX      ..................      XX        ",
"      XX      ..................      XX        ",
"        XXX   ..................   XXX          ",
"        XXX     ..............     XXX          ",
"        XXX     ..............     XXX          ",
"                                                ",
"                                                ",
"                                                ",
"        XXXXXXXXXXXXXXXXXXXXXXXXXXXXXX          ",
"        XXXXXXXXXXXXXXXXXXXXXXXXXXXXXX          ",
"      XXXXXXXXXXXXXXXXXXXXXXXXXXXXXXXXXX        ",
"      XXXXXXXXXXXXXXXXXXXXXXXXXXXXXXXXXX        ",
"      XXXXXXXXXXXXXXXXXXXXXXXXXXXXXXXXXX        ",
"      XXXXX   XXXXXXXXXXXXXXXXXX   XXXXX        ",
"      XXXXX   XXXXXXXXXXXXXXXXXX   XXXXX        ",
"      XXXXX   XXXXXXXXXXXXXXXXXX   XXXXX        ",
"                 XXX      XXX                   ",
"                 XXX      XXX                   ",
"                 XXX      XXX                   ",
"                 XXX      XXX                   ",
"                 XXX      XXX                   ",
"                 XXX      XXX                   ",
"              XXXXXX      XXXXXX                ",
"              XXXXXX      XXXXXX                ",
"              XXXXXX      XXXXXX                ",
"                                                ",
"                                                "
};
