/* XPM */
static char *_e9a4f5e97674a3fc7b2098d03f91d47DGKldQSGYJlePgO6[] = {
/* columns rows colors chars-per-pixel */
"48 48 3 1 ",
"  c black",
". c #FE0003",
"X c #FF03FE",
/* pixels */
"  XXXXXXXXXXXXXXXXXXXXXXXXXXXXXXXXXXXXXXXXXX    ",
"  XXXXXXXXXXXXXXXXXXXXXXXXXXXXXXXXXXXXXXXXXX    ",
"XX  XXXXXXXXXXXXXXXXXXXXXXXXXXXXXXXXXXXXXX  ..  ",
"XX  XXXXXXXXXXXXXXXXXXXXXXXXXXXXXXXXXXXXXX  ..  ",
"  XX  XXXXXXXXXXXXXXXXXXXXXXXXXXXXXXXXXX  ....  ",
"  XX  XXXXXXXXXXXXXXXXXXXXXXXXXXXXXXXXXX  ....  ",
"XX  XX  XXXXXXXXXXXXXXXXXXXXXXXXXXXXXX  ......  ",
"XX  XX  XXXXXXXXXXXXXXXXXXXXXXXXXXXXXX  ......  ",
"  XX  XX  XXXXXXXXXXXXXXXXXXXXXXXXXX  ........  ",
"  XX  XX  XXXXXXXXXXXXXXXXXXXXXXXXXX  ........  ",
"XX  XX  XX  XXXXXXXXXXXXXXXXXXXXXX  ..........  ",
"XX  XX  XX  XXXXXXXXXXXXXXXXXXXXXX  ..........  ",
"  XX  XX  XX  XXXXXXXXXXXXXXXXXX  ............  ",
"  XX  XX  XX  XXXXXXXXXXXXXXXXXX  ............  ",
"XX  XX  XX  XX  XXXXXXXXXXXXXX  ..............  ",
"XX  XX  XX  XX  XXXXXXXXXXXXXX  ..............  ",
"  XX  XX  XX  XX  XXXXXXXXXX  ................  ",
"  XX  XX  XX  XX  XXXXXXXXXX  ................  ",
"XX  XX  XX  XX  XX  XXXXXX  ..................  ",
"XX  XX  XX  XX  XX  XXXXXX  ..................  ",
"  XX  XX  XX  XX  XX  XX  ....................  ",
"  XX  XX  XX  XX  XX  XX  ....................  ",
"XX  XX  XX  XX  XX  XX  ......................  ",
"XX  XX  XX  XX  XX  XX  ......................  ",
"  XX  XX  XX  XX  XX  ..  ....................  ",
"  XX  XX  XX  XX  XX  ..  ....................  ",
"XX  XX  XX  XX  XX          ..................  ",
"XX  XX  XX  XX  XX          ..................  ",
"  XX  XX  XX  XX  ..  ..  ..  ................  ",
"  XX  XX  XX  XX  ..  ..  ..  ................  ",
"XX  XX  XX  XX                  ..............  ",
"XX  XX  XX  XX                  ..............  ",
"  XX  XX  XX  ..  ..  ..  ..  ..  ............  ",
"  XX  XX  XX  ..  ..  ..  ..  ..  ............  ",
"XX  XX  XX                          ..........  ",
"XX  XX  XX                          ..........  ",
"  XX  XX  ..  ..  ..  ..  ..  ..  ..  ........  ",
"  XX  XX  ..  ..  ..  ..  ..  ..  ..  ........  ",
"XX  XX                                  ......  ",
"XX  XX                                  ......  ",
"  XX  ..  ..  ..  ..  ..  ..  ..  ..  ..  ....  ",
"  XX  ..  ..  ..  ..  ..  ..  ..  ..  ..  ....  ",
"XX                                          ..  ",
"XX                                          ..  ",
"  ..  ..  ..  ..  ..  ..  ..  ..  ..  ..  ..    ",
"  ..  ..  ..  ..  ..  ..  ..  ..  ..  ..  ..    ",
"                                                ",
"                                                "
};
